<?xml version="1.0" encoding="iso-8859-1"?>
<!-- Generator: Adobe Illustrator 16.0.0, SVG Export Plug-In . SVG Version: 6.00 Build 0)  -->
<!DOCTYPE svg PUBLIC "-//W3C//DTD SVG 1.1//EN" "http://www.w3.org/Graphics/SVG/1.1/DTD/svg11.dtd">
<svg version="1.1" id="Capa_1" xmlns="http://www.w3.org/2000/svg" xmlns:xlink="http://www.w3.org/1999/xlink" x="0px" y="0px"
	 width="360.572px" height="360.571px" viewBox="0 0 360.572 360.571" style="enable-background:new 0 0 360.572 360.571;"
	 xml:space="preserve">
<g>
	<g>
		<g>
			<path d="M329.272,79.663c1.838-1.224,1.838-3.672,1.225-5.508l0,0c1.836-6.732-7.955-9.18-9.791-3.06
				c0,0.612-0.613,1.224-0.613,1.836c-49.572,16.524-90.576-1.836-138.923-15.3c-35.496-9.792-70.379-11.016-102.815,7.344
				c0-2.448,0-4.896-0.612-7.344h0.612c13.464-4.896,20.808-20.196,17.748-33.66C92.43,8.671,77.13-1.121,61.83,0.103
				c-15.912,1.224-29.376,15.3-31.824,31.212c-1.836,12.852,4.896,28.152,18.36,28.764c-0.612,1.836-0.612,4.284-0.612,6.732
				c-3.672,43.452,0,88.74-1.224,132.804c-0.612,47.734-3.672,96.084-3.672,143.818c0,1.836,0.612,3.062,1.836,3.672
				c0.612,4.284,1.224,6.732,4.896,9.793c3.672,2.447,7.956,3.673,12.24,3.673c6.12-0.612,17.748-6.12,14.688-14.076
				c3.06-34.272,3.06-69.156,2.448-104.04c79.56-23.868,149.329,41.004,228.276,26.314c0,0,0,0,0.61,0
				c1.226,0.612,3.675,0.612,4.285-1.224c7.345-29.376,9.791-59.976,11.017-89.964C324.377,143.923,321.317,110.875,329.272,79.663z
				 M74.682,49.063c-1.836,1.224-2.448,2.448-2.448,4.284c0,0.612,0,0.612,0,1.224c-4.896,47.736-3.672,97.308-4.284,145.656
				c-0.612,47.736-3.672,96.696,0,144.434c-2.448,1.836-4.284,4.283-7.344,4.283c-3.06,0.611-8.568-1.225-11.628-3.672
				c0.612-0.611,1.224-1.837,1.224-3.061c4.284-49.572,4.896-99.756,5.508-149.939c0.612-23.869,0.612-47.736,0.612-72.216
				c0-12.24,0-23.868-0.612-36.108c0-3.672-0.612-6.732-0.612-9.18c0-2.448,0-5.508,0-7.956c0-3.672,1.836-7.344-0.612-10.404l0,0
				c0-1.224,0-2.448-1.224-3.672c-0.612-1.224-2.448-1.836-3.672-1.224c-13.464-3.06-12.852-19.584-6.732-29.376
				c5.508-8.568,15.3-14.688,25.704-12.24C89.37,14.179,91.817,38.659,74.682,49.063z M307.241,258.979h-0.611
				c-49.572,0.612-91.188-16.522-138.923-27.539c-29.988-6.731-60.588-7.955-88.74,4.283c0-12.238,0-23.867,0-35.496
				c0-43.452,1.836-87.516-0.612-131.58c28.764-7.344,54.468-10.404,83.844-3.672c23.256,5.508,44.676,14.688,67.932,21.42
				c28.152,7.956,59.978,12.24,86.904,0.612c-4.285,23.868-3.672,48.348-3.672,72.216
				C312.137,192.271,308.465,225.931,307.241,258.979z"/>
			<path d="M257.057,126.175c-4.284-17.136-22.03-25.704-38.557-23.868c-14.688,1.836-26.316,11.016-33.66,22.644
				c-10.402-26.928-48.958-41.616-63.034-7.956c-6.732,17.136,0.612,36.108,12.852,48.96c11.016,11.628,29.376,26.314,46.511,23.868
				C214.217,196.555,266.237,161.671,257.057,126.175z M241.145,143.923c-5.508,12.852-18.973,20.808-31.213,25.704
				c-11.627,4.896-24.479,3.672-36.106,7.344c0,0,0,0-0.612,0c-7.344-5.508-22.032-13.464-25.092-15.912
				c-9.18-7.956-16.524-17.748-16.524-30.6c0-17.136,17.748-27.54,31.212-14.688c7.344,6.732,9.18,17.136,15.3,24.48
				c2.448,3.06,7.345,0.612,7.345-3.06c0-0.612,0-0.612,0-1.224c7.344-8.568,15.299-17.748,26.928-21.42
				C231.965,110.875,249.713,124.339,241.145,143.923z"/>
		</g>
	</g>
</g>
<g>
</g>
<g>
</g>
<g>
</g>
<g>
</g>
<g>
</g>
<g>
</g>
<g>
</g>
<g>
</g>
<g>
</g>
<g>
</g>
<g>
</g>
<g>
</g>
<g>
</g>
<g>
</g>
<g>
</g>
</svg>
